<?xml version="1.0" encoding="utf-8"?>
<!-- Generator: Adobe Illustrator 17.0.0, SVG Export Plug-In . SVG Version: 6.00 Build 0)  -->
<!DOCTYPE svg PUBLIC "-//W3C//DTD SVG 1.1//EN" "http://www.w3.org/Graphics/SVG/1.1/DTD/svg11.dtd">
<svg version="1.1" xmlns="http://www.w3.org/2000/svg" xmlns:xlink="http://www.w3.org/1999/xlink" x="0px" y="0px" width="1000px"
	 height="1000px" viewBox="0 0 1000 1000" enable-background="new 0 0 1000 1000" xml:space="preserve">
<g id="collision">
	<line fill="none" stroke="#000000" stroke-miterlimit="10" x1="0" y1="200" x2="0" y2="700"/>
	<line fill="none" stroke="#000000" stroke-miterlimit="10" x1="400" y1="200" x2="400" y2="580.417"/>
	<line fill="none" stroke="#000000" stroke-miterlimit="10" x1="380" y1="200" x2="380" y2="710"/>
	<g id="top_arc">
		<line fill="none" stroke="#000000" stroke-miterlimit="10" x1="200" y1="0" x2="123.446" y2="15.183"/>
		<line fill="none" stroke="#000000" stroke-miterlimit="10" x1="123.446" y1="15.183" x2="58.577" y2="58.58"/>
		<line fill="none" stroke="#000000" stroke-miterlimit="10" x1="58.579" y1="58.577" x2="15.183" y2="123.445"/>
		<line fill="none" stroke="#000000" stroke-miterlimit="10" x1="15.183" y1="123.445" x2="0" y2="200"/>
		<line fill="none" stroke="#000000" stroke-miterlimit="10" x1="200" y1="0.183" x2="276.554" y2="15.366"/>
		<line fill="none" stroke="#000000" stroke-miterlimit="10" x1="276.554" y1="15.366" x2="341.423" y2="58.763"/>
		<line fill="none" stroke="#000000" stroke-miterlimit="10" x1="341.421" y1="58.76" x2="384.817" y2="123.627"/>
		<line fill="none" stroke="#000000" stroke-miterlimit="10" x1="384.817" y1="123.627" x2="400" y2="200.183"/>
	</g>
	<line fill="none" stroke="#000000" stroke-miterlimit="10" x1="0" y1="700" x2="420" y2="910"/>
	<line fill="none" stroke="#000000" stroke-miterlimit="10" x1="220.467" y1="789.767" x2="400" y2="700"/>
	<line fill="none" stroke="#000000" stroke-miterlimit="10" x1="420" y1="600" x2="420" y2="910"/>
	<line fill="none" stroke="#000000" stroke-miterlimit="10" x1="400" y1="610" x2="400" y2="880"/>
	<line fill="none" stroke="#000000" stroke-miterlimit="10" x1="420" y1="600" x2="400.417" y2="580.417"/>
	<line fill="none" stroke="#000000" stroke-miterlimit="10" x1="220.467" y1="790.233" x2="400" y2="880"/>
</g>
<g id="movable">
	<circle id="ball" fill="#736357" stroke="#736357" stroke-miterlimit="10" cx="390.167" cy="400" r="5"/>
</g>
</svg>
